#!OML:ASF I:\Actors\actors\Patient Classification 2\Patient 1\Session 1\actor1.ASF
:FULLY-SPECIFIED
:DEGREES
649
root -0.309872 18.9918 5.52449 22.3869 3.98598 -2.09823
lowerback 26.0971 -1.09327 -5.6412
upperback 5.28321 -2.76164 1.08508
thorax -8.24861 -1.16305 5.34029
lowerneck -6.96941 3.16138 5.56302
upperneck -0.043445 3.70327 3.19206
head 1.19249 1.92135 0.178618
rclavicle 2.06736e-014 -1.90833e-014
rhumerus -14.4372 36.5978 -65.6118
rradius 92.0117
rwrist 1.05512
rhand -12.4633 -51.528
rfingers 7.12502
rthumb 13.6105 -81.0631
lclavicle 2.06736e-014 -1.90833e-014
lhumerus 24.1254 -15.1988 77.9388
lradius 48.4338
lwrist -16.4103
lhand -12.115 -21.5628
lfingers 7.12502
lthumb 13.9462 7.94944
rfemur -16.5079 -4.58256 16.7102
rtibia -7.95139e-015
rfoot -14.4705 -15.6358
rtoes -3.378
lfemur -34.0503 -1.56051 -12.5138
ltibia 26.4791
lfoot -15.5025 8.14061
ltoes -54.4014
650
root -0.326298 18.9921 5.5208 22.3387 3.73161 -2.01424
lowerback 26.1749 -1.12973 -5.76419
upperback 5.29576 -2.84865 1.05197
thorax -8.25783 -1.20165 5.4048
lowerneck -6.83216 3.33564 5.76754
upperneck -0.20465 3.94496 2.7743
head 1.13367 2.02942 0.0194381
rclavicle 2.3059e-014 -5.56597e-015
rhumerus -13.394 37.0035 -64.8929
rradius 92.0588
rwrist 0.922112
rhand -12.3095 -51.7884
rfingers 7.12502
rthumb 13.7588 -81.3134
lclavicle 2.3059e-014 -5.56597e-015
lhumerus 23.5584 -14.8407 77.6721
lradius 48.5833
lwrist -16.4835
lhand -12.4159 -21.7375
lfingers 7.12502
lthumb 13.6562 7.79448
rfemur -16.5109 -4.35679 16.5813
rtibia -2.46493e-014
rfoot -14.435 -15.6898
rtoes -3.39877
lfemur -33.8391 -1.3982 -12.6241
ltibia 26.28
lfoot -15.4994 8.21438
ltoes -54.4341
651
root -0.34125 18.9935 5.51781 22.3073 3.52077 -1.91244
lowerback 26.2095 -1.1884 -5.96139
upperback 5.31159 -2.97607 1.07
thorax -8.22823 -1.25917 5.57958
lowerneck -6.61248 3.51891 5.87906
upperneck -0.411515 4.21225 2.43796
head 1.04439 2.15019 -0.100269
rclavicle -8.74653e-015 -1.03368e-014
rhumerus -12.1991 37.5128 -64.0379
rradius 92.0326
rwrist 0.79584
rhand -12.2695 -51.9692
rfingers 7.12502
rthumb 13.7973 -81.4917
lclavicle -8.74653e-015 -1.03368e-014
lhumerus 22.9186 -14.4228 77.4057
lradius 48.8236
lwrist -16.429
lhand -12.5354 -21.8472
lfingers 7.12502
lthumb 13.541 7.69247
rfemur -16.5186 -4.18125 16.4458
rtibia 3.97569e-014
rfoot -14.3871 -15.7463
rtoes -3.68031
lfemur -33.6552 -1.31116 -12.7309
ltibia 26.0974
lfoot -15.5233 8.32622
ltoes -54.5173
652
root -0.354802 18.9959 5.51436 22.3071 3.38553 -1.78643
lowerback 26.1283 -1.27836 -6.2529
upperback 5.37108 -3.15214 1.16417
thorax -8.07211 -1.34459 5.90067
lowerneck -6.43927 3.70218 5.98304
upperneck -0.54316 4.47429 1.98968
head 0.991915 2.26979 -0.252294
rclavicle 2.3059e-014 -1.19271e-014
rhumerus -10.7668 38.0994 -62.9652
rradius 91.9739
rwrist 0.667643
rhand -12.4055 -52.0082
rfingers 7.12502
rthumb 13.6662 -81.5395
lclavicle 2.3059e-014 -1.19271e-014
lhumerus 22.3378 -13.8804 77.1894
lradius 49.0499
lwrist -16.2451
lhand -12.5157 -21.9343
lfingers 7.12502
lthumb 13.56 7.60419
rfemur -16.5391 -4.08975 16.308
rtibia -4.21423e-014
rfoot -14.3386 -15.7827
rtoes -3.92293
lfemur -33.5425 -1.32289 -12.8262
ltibia 25.9264
lfoot -15.5295 8.43735
ltoes -54.5493
653
root -0.368723 18.9974 5.5106 22.287 3.27313 -1.68434
lowerback 26.0875 -1.3557 -6.43758
upperback 5.4299 -3.28806 1.23609
thorax -7.94902 -1.41243 6.1245
lowerneck -6.40185 3.83652 6.07052
upperneck -0.558046 4.65545 1.64561
head 0.996711 2.35485 -0.368605
rclavicle -6.36111e-015 -1.51076e-014
rhumerus -9.4219 38.5289 -61.8748
rradius 91.9826
rwrist 0.598111
rhand -12.4567 -51.9175
rfingers 7.12502
rthumb 13.6169 -81.4522
lclavicle -6.36111e-015 -1.51076e-014
lhumerus 21.8082 -13.4692 77.0115
lradius 49.2115
lwrist -16.0892
lhand -12.584 -22.0601
lfingers 7.12502
lthumb 13.4942 7.48277
rfemur -16.5405 -4.00765 16.2037
rtibia 4.29375e-014
rfoot -14.2908 -15.814
rtoes -3.99669
lfemur -33.4177 -1.2851 -12.9061
ltibia 25.747
lfoot -15.498 8.45441
ltoes -54.4891
654
root -0.383314 18.9972 5.50699 22.2668 3.09035 -1.56985
lowerback 26.1009 -1.39371 -6.54285
upperback 5.45153 -3.36742 1.20895
thorax -7.91472 -1.45045 6.17872
lowerneck -6.46233 3.95097 6.22941
upperneck -0.486684 4.79256 1.415
head 1.04441 2.42219 -0.460504
rclavicle -3.73715e-014 7.95139e-016
rhumerus -8.30143 38.7752 -60.9896
rradius 92.0191
rwrist 0.636528
rhand -12.3811 -51.8661
rfingers 7.12502
rthumb 13.6898 -81.3958
lclavicle -3.73715e-014 7.95139e-016
lhumerus 21.2762 -13.2971 76.7233
lradius 49.3738
lwrist -15.9271
lhand -12.6927 -22.1125
lfingers 7.12502
lthumb 13.3894 7.43729
rfemur -16.5659 -3.86642 16.0598
rtibia -1.35174e-014
rfoot -14.2048 -15.8713
rtoes -4.3127
lfemur -33.2686 -1.1051 -13.0601
ltibia 25.5524
lfoot -15.4244 8.39518
ltoes -54.4305
